<svg xmlns="http://www.w3.org/2000/svg" viewBox="0 0 1000 1000" width="512" height="512">
  <defs>
    <linearGradient id="grad" x1="0%" y1="100%" x2="100%" y2="0%">
      <stop offset="0%" stop-color="#FF2D78"/>
      <stop offset="40%" stop-color="#FF6B6B"/>
      <stop offset="100%" stop-color="#FF8C42"/>
    </linearGradient>
  </defs>
  
  <!-- Llama externa -->
  <path fill="url(#grad)" d="
    M 500 100
    C 480 100 460 120 450 140
    C 430 100 390 60 350 40
    C 330 30 310 40 300 60
    C 280 40 250 30 220 40
    C 190 50 170 80 160 110
    C 140 100 110 110 90 140
    C 60 180 50 230 60 280
    C 50 320 50 360 70 400
    C 60 440 60 480 80 520
    C 100 580 140 630 190 670
    C 240 710 300 740 360 760
    C 420 780 460 790 500 800
    C 540 790 580 780 640 760
    C 700 740 760 710 810 670
    C 860 630 900 580 920 520
    C 940 480 940 440 930 400
    C 950 360 950 320 940 280
    C 950 230 940 180 910 140
    C 890 110 860 100 840 110
    C 830 80 810 50 780 40
    C 750 30 720 40 700 60
    C 690 40 670 30 650 40
    C 610 60 570 100 550 140
    C 540 120 520 100 500 100
    Z
  "/>
  
  <!-- Corazon interior (corte) -->
  <path fill="#1a1a2e" d="
    M 500 350
    C 500 350 420 280 360 280
    C 300 280 260 330 260 380
    C 260 450 360 530 500 650
    C 640 530 740 450 740 380
    C 740 330 700 280 640 280
    C 580 280 500 350 500 350
    Z
  "/>
</svg>
